<svg width="133" height="141" fill="none" xmlns="http://www.w3.org/2000/svg"><path d="M4.346 35.037a4.346 4.346 0 100-8.691 4.346 4.346 0 000 8.691zm24.851 0a4.346 4.346 0 100-8.691 4.346 4.346 0 000 8.691zm24.852 0a4.346 4.346 0 100-8.691 4.346 4.346 0 000 8.691zM4.346 8.691a4.346 4.346 0 100-8.69 4.346 4.346 0 000 8.69zm24.851 0a4.346 4.346 0 100-8.69 4.346 4.346 0 000 8.69zm24.852 0a4.346 4.346 0 100-8.691 4.346 4.346 0 000 8.691zM4.346 61.518a4.346 4.346 0 100-8.691 4.346 4.346 0 000 8.691zm24.851 0a4.346 4.346 0 100-8.691 4.346 4.346 0 000 8.691zm24.852 0a4.346 4.346 0 100-8.691 4.346 4.346 0 000 8.691zm23.767-26.481a4.346 4.346 0 100-8.691 4.346 4.346 0 000 8.691zm24.987 0a4.345 4.345 0 100-8.69 4.345 4.345 0 000 8.69zm24.853 0a4.346 4.346 0 100-8.692 4.346 4.346 0 000 8.692zM77.816 8.691a4.346 4.346 0 100-8.691 4.346 4.346 0 000 8.691zm24.987 0a4.345 4.345 0 100-8.69 4.345 4.345 0 000 8.69zm24.853 0a4.346 4.346 0 100-8.692 4.346 4.346 0 000 8.692zm-49.84 52.827a4.346 4.346 0 100-8.692 4.346 4.346 0 000 8.692zm24.987 0a4.345 4.345 0 100-8.69 4.345 4.345 0 000 8.69zm24.853 0a4.346 4.346 0 100-8.692 4.346 4.346 0 000 8.692zM4.346 114.555a4.346 4.346 0 100-8.692 4.346 4.346 0 000 8.692zm24.851 0a4.346 4.346 0 100-8.692 4.346 4.346 0 000 8.692zm24.852 0a4.346 4.346 0 100-8.692 4.346 4.346 0 000 8.692zM4.346 88.21a4.346 4.346 0 100-8.692 4.346 4.346 0 000 8.692zm24.851 0a4.346 4.346 0 100-8.692 4.346 4.346 0 000 8.692zm24.852 0a4.346 4.346 0 100-8.692 4.346 4.346 0 000 8.692zM4.346 140.901a4.346 4.346 0 100-8.692 4.346 4.346 0 000 8.692zm24.851 0a4.346 4.346 0 100-8.692 4.346 4.346 0 000 8.692zm24.852 0a4.346 4.346 0 100-8.692 4.346 4.346 0 000 8.692zm23.767-26.346a4.346 4.346 0 100-8.692 4.346 4.346 0 000 8.692zm24.987 0a4.345 4.345 0 100-8.69 4.345 4.345 0 000 8.69zm24.853 0a4.346 4.346 0 100-8.693 4.346 4.346 0 000 8.693zM77.816 88.21a4.346 4.346 0 100-8.692 4.346 4.346 0 000 8.691zm24.987 0a4.345 4.345 0 100-8.69 4.345 4.345 0 000 8.69zm24.853 0a4.346 4.346 0 100-8.693 4.346 4.346 0 000 8.692zm-49.84 52.69a4.345 4.345 0 10.001-8.69 4.345 4.345 0 000 8.69zm24.987 0a4.345 4.345 0 100-8.691 4.345 4.345 0 000 8.691zm24.853 0a4.345 4.345 0 10.001-8.69 4.345 4.345 0 00-.001 8.69z" fill="#6895E0"/></svg>